<svg width="170" height="40" viewBox="0 0 170 40" fill="none" xmlns="http://www.w3.org/2000/svg">
<path d="M58.0195 28H49.7969V13.7227H58.0195V16.2031H52.8242V19.3379H57.6582V21.8184H52.8242V25.5H58.0195V28ZM73.6738 28H69.8262L63.6152 17.1992H63.5273C63.651 19.1068 63.7129 20.4674 63.7129 21.2812V28H61.0078V13.7227H64.8262L71.0273 24.416H71.0957C70.998 22.5605 70.9492 21.2487 70.9492 20.4805V13.7227H73.6738V28ZM85.5 28H77.2773V13.7227H85.5V16.2031H80.3047V19.3379H85.1387V21.8184H80.3047V25.5H85.5V28ZM91.5156 20.0605H92.4922C93.4492 20.0605 94.1556 19.901 94.6113 19.582C95.0671 19.263 95.2949 18.7617 95.2949 18.0781C95.2949 17.401 95.0605 16.9193 94.5918 16.6328C94.1296 16.3464 93.4102 16.2031 92.4336 16.2031H91.5156V20.0605ZM91.5156 22.5215V28H88.4883V13.7227H92.6484C94.5885 13.7227 96.0241 14.0775 96.9551 14.7871C97.8861 15.4902 98.3516 16.5612 98.3516 18C98.3516 18.8398 98.1204 19.5885 97.6582 20.2461C97.196 20.8971 96.5417 21.4082 95.6953 21.7793C97.8438 24.9889 99.2435 27.0625 99.8945 28H96.5352L93.127 22.5215H91.5156ZM107.111 19.9824H112.775V27.3848C111.857 27.6842 110.992 27.8926 110.178 28.0098C109.37 28.1335 108.544 28.1953 107.697 28.1953C105.542 28.1953 103.895 27.5638 102.756 26.3008C101.623 25.0312 101.057 23.2116 101.057 20.8418C101.057 18.5371 101.714 16.7402 103.029 15.4512C104.351 14.1621 106.18 13.5176 108.518 13.5176C109.982 13.5176 111.395 13.8105 112.756 14.3965L111.75 16.8184C110.708 16.2975 109.624 16.0371 108.498 16.0371C107.189 16.0371 106.141 16.4766 105.354 17.3555C104.566 18.2344 104.172 19.416 104.172 20.9004C104.172 22.4499 104.488 23.6348 105.119 24.4551C105.757 25.2689 106.682 25.6758 107.893 25.6758C108.524 25.6758 109.165 25.6107 109.816 25.4805V22.502H107.111V19.9824ZM120.627 19.6016L123.605 13.7227H126.867L122.131 22.4434V28H119.123V22.541L114.387 13.7227H117.668L120.627 19.6016ZM139.924 16.0371C138.785 16.0371 137.902 16.4668 137.277 17.3262C136.652 18.179 136.34 19.3704 136.34 20.9004C136.34 24.084 137.535 25.6758 139.924 25.6758C140.926 25.6758 142.141 25.4251 143.566 24.9238V27.4629C142.395 27.9512 141.086 28.1953 139.641 28.1953C137.564 28.1953 135.975 27.5671 134.875 26.3105C133.775 25.0475 133.225 23.2376 133.225 20.8809C133.225 19.3965 133.495 18.0977 134.035 16.9844C134.576 15.8646 135.35 15.0085 136.359 14.416C137.375 13.8171 138.563 13.5176 139.924 13.5176C141.311 13.5176 142.704 13.8529 144.104 14.5234L143.127 16.9844C142.593 16.7305 142.056 16.5091 141.516 16.3203C140.975 16.1315 140.445 16.0371 139.924 16.0371ZM159.572 20.8418C159.572 23.2051 158.986 25.0215 157.814 26.291C156.643 27.5605 154.963 28.1953 152.775 28.1953C150.588 28.1953 148.908 27.5605 147.736 26.291C146.564 25.0215 145.979 23.1986 145.979 20.8223C145.979 18.446 146.564 16.6328 147.736 15.3828C148.915 14.1263 150.601 13.498 152.795 13.498C154.989 13.498 156.665 14.1296 157.824 15.3926C158.99 16.6556 159.572 18.472 159.572 20.8418ZM149.152 20.8418C149.152 22.4368 149.455 23.638 150.061 24.4453C150.666 25.2526 151.571 25.6562 152.775 25.6562C155.191 25.6562 156.398 24.0514 156.398 20.8418C156.398 17.6257 155.197 16.0176 152.795 16.0176C151.59 16.0176 150.682 16.4245 150.07 17.2383C149.458 18.0456 149.152 19.2467 149.152 20.8418ZM161.877 26.6035C161.877 26.0566 162.023 25.6432 162.316 25.3633C162.609 25.0833 163.036 24.9434 163.596 24.9434C164.136 24.9434 164.553 25.0866 164.846 25.373C165.145 25.6595 165.295 26.0697 165.295 26.6035C165.295 27.1178 165.145 27.5247 164.846 27.8242C164.546 28.1172 164.13 28.2637 163.596 28.2637C163.049 28.2637 162.626 28.1204 162.326 27.834C162.027 27.541 161.877 27.1309 161.877 26.6035Z" fill="#124A6E"/>
<path fill-rule="evenodd" clip-rule="evenodd" d="M8.90625 0H31.0938C36.0125 0 40 3.98746 40 8.90625V31.0938C40 36.0125 36.0125 40 31.0938 40H8.90625C3.98746 40 0 36.0125 0 31.0938V8.90625C0 3.98746 3.98746 0 8.90625 0Z" fill="#124A6E"/>
<g style="mix-blend-mode:multiply" opacity="0.15">
<path fill-rule="evenodd" clip-rule="evenodd" d="M20.2063 29.2722L20 29.3837C13.1216 33.1253 5.61035 34.3435 0 33.1264V8.90625C0 3.98746 3.98746 0 8.90625 0H31.0938C36.0125 0 40 3.98746 40 8.90625V25.641C33.7747 24.3752 27.015 25.6168 20.2063 29.2722Z" fill="#22998F"/>
</g>
<path fill-rule="evenodd" clip-rule="evenodd" d="M20.2063 26.7891L20 26.9006C13.1216 30.6421 5.61035 31.8604 0 30.6433V8.90625C0 3.98746 3.98746 0 8.90625 0H31.0938C36.0125 0 40 3.98746 40 8.90625V23.1579C33.7747 21.8921 27.015 23.1337 20.2063 26.7891Z" fill="#22998F"/>
<g style="mix-blend-mode:multiply" opacity="0.15">
<path fill-rule="evenodd" clip-rule="evenodd" d="M8.90625 0H31.0938C36.0125 0 40 3.98746 40 8.90625V12.525C33.7747 11.2592 27.015 12.5008 20.2063 16.1562L20 16.2677C13.1216 20.0093 5.61035 21.2275 0 20.0104V8.90625C0 3.98746 3.98746 0 8.90625 0Z" fill="#17E5D2"/>
</g>
<path fill-rule="evenodd" clip-rule="evenodd" d="M40 8.90625V10.0585C33.7747 8.79264 27.015 10.0343 20.2063 13.6897L20 13.8012C13.1216 17.5427 5.61035 18.761 0 17.5439V8.90625C0 3.98746 3.98746 0 8.90625 0H31.0938C36.0125 0 40 3.98746 40 8.90625Z" fill="#17E5D2"/>
</svg>
