<?xml version="1.0" encoding="UTF-8"?>
<svg width="52px" height="52px" align="center" viewBox="0 0 52 52" version="1.1" xmlns="http://www.w3.org/2000/svg" xmlns:xlink="http://www.w3.org/1999/xlink">
    <!-- Generator: Sketch 58 (84663) - https://sketch.com -->
    <title>Group 2</title>
    <desc>Created with Sketch.</desc>
    <g id="Final" stroke="none" stroke-width="1" fill="none" fill-rule="evenodd">
        <g id="01-Homepage/11" transform="translate(-175.000000, -20.000000)">
            <g id="Group-2" transform="translate(175.000000, 20.000000)">
                <g id="App-Icon">
                    <g id="Group" transform="translate(-0.000000, -0.000000)">
                        <path d="M11.578125,7.97285793e-10 L40.421875,7.97285793e-10 C46.8162969,7.97285793e-10 52,5.18370313 52,11.578125 L52,40.421875 C52,46.8162969 46.8162969,52 40.421875,52 L11.578125,52 C5.18370313,52 0,46.8162969 0,40.421875 L0,11.578125 C0,5.18370313 5.18370313,7.97285793e-10 11.578125,7.97285793e-10 Z" id="03-Color" fill="#294766"></path>
                        <path d="M26.2682378,38.0538652 L26,38.1988254 C17.058136,43.0628376 7.29345703,44.6465593 0,43.0643225 L0,11.578125 C0,5.18370313 5.18370313,0 11.578125,0 L40.421875,0 C46.8162969,0 52,5.18370313 52,11.578125 L52,33.3333283 C43.9071548,31.6877307 35.119464,33.3018717 26.2682378,38.0538652 L26.2682378,38.0538652 Z" id="02-Shadow" fill-opacity="0.15" fill="#4296A5" style="mix-blend-mode: multiply;"></path>
                        <path d="M26.2682378,34.8258001 L26,34.9707602 C17.058136,39.8347725 7.29345703,41.4184942 0,39.8362573 L0,11.578125 C0,5.18370313 5.18370313,7.93278332e-10 11.578125,7.93278332e-10 L40.421875,7.93278332e-10 C46.8162969,7.93278332e-10 52,5.18370313 52,11.578125 L52,30.1052632 C43.9071548,28.4596656 35.119464,30.0738065 26.2682378,34.8258001 L26.2682378,34.8258001 Z" id="02-Color" fill="#4296A5"></path>
                        <path d="M11.578125,7.9722895e-10 L40.421875,7.9722895e-10 C46.8162969,7.9722895e-10 52,5.18370313 52,11.578125 L52,16.2825513 C43.9071548,14.6369537 35.119464,16.2510946 26.2682378,21.0030882 L26,21.1480484 C17.058136,26.0120606 7.29345703,27.5957823 4.46220838e-11,26.0135454 L4.46220838e-11,11.578125 C4.46220838e-11,5.18370313 5.18370313,7.9722895e-10 11.578125,7.9722895e-10 Z" id="01-Shadow" fill-opacity="0.15" fill="#5CE6E6" style="mix-blend-mode: multiply;"></path>
                        <path d="M52,11.578125 L52,13.0760234 C43.9071548,11.4304258 35.119464,13.0445667 26.2682378,17.7965603 L26,17.9415205 C17.058136,22.8055327 7.29345703,24.3892544 4.46220838e-11,22.8070175 L4.46220838e-11,11.578125 C4.46220838e-11,5.18370313 5.18370313,7.97342636e-10 11.578125,7.97342636e-10 L40.421875,7.97342636e-10 C46.8162969,7.97342636e-10 52,5.18370313 52,11.578125 Z" id="01-Color" fill="#5CE6E6"></path>
                    </g>
                </g>
                
            </g>
        </g>
    </g>
</svg>